<svg width="168" height="39" viewBox="0 0 168 39" fill="currentColor" xmlns="http://www.w3.org/2000/svg">
<style type="text/css">	.st0{fill:#18171A;}	.st1{fill:#6851FF;}</style>
<path class="st0" d="M9.841 30.678C10.5348 30.7036 11.2271 30.5984 11.882 30.368C12.3506 30.1896 12.7737 29.9096 13.121 29.548C13.7069 28.9125 14.0322 28.0799 14.0322 27.2155C14.0322 26.3512 13.7069 25.5185 13.121 24.883C12.7734 24.522 12.3503 24.2423 11.882 24.064C11.2271 23.8338 10.5347 23.7286 9.841 23.754H4.92102V30.678H9.841ZM4.92102 19.378H8.38303C8.97706 19.4075 9.57114 19.3209 10.132 19.123C10.4983 18.968 10.8321 18.7455 11.116 18.467C11.3376 18.2191 11.516 17.9359 11.644 17.629C11.7764 17.3178 11.8446 16.9832 11.8446 16.645C11.8446 16.3069 11.7764 15.9722 11.644 15.661C11.5158 15.3543 11.3374 15.071 11.116 14.823C10.832 14.5446 10.4982 14.3221 10.132 14.167C9.57109 13.9693 8.97705 13.8827 8.38303 13.912H4.92102V19.378ZM8.67401 9.539C9.85249 9.49857 11.0293 9.65885 12.154 10.013C12.9767 10.306 13.7369 10.7511 14.395 11.325C15.1039 11.9627 15.6852 12.7293 16.108 13.584C16.5501 14.4787 16.7748 15.4651 16.764 16.463C16.7661 17.3037 16.5924 18.1355 16.254 18.905C15.9831 19.5719 15.601 20.188 15.124 20.727C16.2838 21.3031 17.2472 22.2095 17.893 23.332C18.5992 24.5169 18.965 25.8737 18.95 27.253C18.9594 28.3015 18.7417 29.3396 18.312 30.296C17.9006 31.2114 17.3267 32.0445 16.618 32.755C15.8685 33.4891 14.9751 34.0601 13.994 34.432C12.6955 34.8863 11.324 35.0961 9.94901 35.051H0V9.542L8.67401 9.539Z" fill="currentColor"/>
<path class="st0" d="M37.0449 9.54201H41.9649V30.678H52.7159V35.051H37.0459L37.0449 9.54201Z" fill="currentColor"/>
<path class="st0" d="M128.989 22.3C128.996 21.2712 128.829 20.2486 128.497 19.275C128.189 18.3649 127.727 17.5145 127.131 16.761C126.429 15.8622 125.523 15.1425 124.489 14.661C123.266 14.1299 121.941 13.8748 120.608 13.914H116.964V30.677H120.608C121.941 30.7167 123.266 30.4616 124.489 29.93C125.523 29.4488 126.429 28.7291 127.131 27.83C127.727 27.0762 128.189 26.2255 128.497 25.315C128.829 24.3414 128.996 23.3188 128.989 22.29V22.3ZM120.06 9.53501C121.793 9.49601 123.523 9.70443 125.198 10.154C126.508 10.5309 127.742 11.1354 128.843 11.94C130.419 13.1037 131.694 14.6283 132.56 16.386C133.447 18.2275 133.908 20.2454 133.908 22.2895C133.908 24.3337 133.447 26.3515 132.56 28.193C131.694 29.951 130.42 31.4757 128.843 32.639C127.743 33.4443 126.509 34.0489 125.198 34.425C123.523 34.8748 121.793 35.0833 120.06 35.044H112.043V9.54201L120.06 9.53501Z" fill="currentColor"/>
<path class="st0" d="M157.103 13.915V19.2H164.938V23.573H157.103V30.679H167.853V35.052H152.183V9.54201H167.49V13.916L157.103 13.915Z" fill="currentColor"/>
<path class="st1" d="M76.4211 31.76L80.4701 21.906L77.222 13.815L67.3 38.357L87.0551 38.386L84.4281 31.76H76.4211Z" fill="currentColor"/>
<path class="st1" d="M81.5971 0.563995L79.2061 6.59601L79.1061 6.836C78.5544 8.4413 78.3709 10.1502 78.5691 11.836C78.6332 12.5199 78.77 13.1951 78.9771 13.85C79.0191 13.976 79.0621 14.098 79.1091 14.216L88.7692 38.356H96.8691L81.5971 0.563995Z" fill="currentColor"/>
</svg>
